<?xml version="1.0" encoding="UTF-8"?>
<svg id="SVGRoot" width="16px" height="16px" version="1.1" viewBox="0 0 16 16" xmlns="http://www.w3.org/2000/svg" xmlns:cc="http://creativecommons.org/ns#" xmlns:dc="http://purl.org/dc/elements/1.1/" xmlns:rdf="http://www.w3.org/1999/02/22-rdf-syntax-ns#">
 <metadata>
  <rdf:RDF>
   <cc:Work rdf:about="">
    <dc:format>image/svg+xml</dc:format>
    <dc:type rdf:resource="http://purl.org/dc/dcmitype/StillImage"/>
    <dc:title/>
   </cc:Work>
  </rdf:RDF>
 </metadata>
 <g>
  <circle cx="8" cy="8" r="8" fill="#24c5ff" stop-color="#000000" stroke-dasharray="1.14465, 1.14464999999999995" stroke-width="1.1446" style="paint-order:stroke fill markers"/>
  <g fill="#fff" stroke-width=".090103" aria-label="Graphic">
   <path d="m3.5353 8.813q-0.2147 0.09855-0.46987 0.17246-0.25341 0.072153-0.49099 0.072153-0.30621 0-0.56138-0.084471-0.25517-0.084472-0.43468-0.25341-0.18126-0.1707-0.27981-0.42588-0.09855-0.25693-0.09855-0.6001 0-0.62826 0.36604-0.99078 0.3678-0.36428 1.0084-0.36428 0.2235 0 0.45579 0.054554 0.23406 0.052795 0.50331 0.18126v0.41356h-0.031676q-0.054554-0.042236-0.15838-0.11087-0.10383-0.068633-0.20414-0.11439-0.12143-0.054554-0.27629-0.089751-0.1531-0.036956-0.34844-0.036956-0.43995 0-0.69689 0.28333-0.25517 0.28157-0.25517 0.76376 0 0.50859 0.26749 0.79192 0.26749 0.28157 0.72857 0.28157 0.16894 0 0.33613-0.033437 0.16894-0.033437 0.29565-0.086231v-0.64233h-0.70217v-0.30621h1.0471z"/>
   <path d="m5.3444 7.4017h-0.017598q-0.073912-0.017598-0.14431-0.024637-0.068633-0.0088-0.16366-0.0088-0.1531 0-0.29565 0.068633-0.14255 0.066873-0.27453 0.17422v1.3955h-0.33085v-1.9657h0.33085v0.29037q0.1971-0.15838 0.34668-0.2235 0.15134-0.066873 0.30797-0.066873 0.086231 0 0.12495 0.00528 0.038716 0.00352 0.11615 0.015838z"/>
   <path d="m7.187 9.0066h-0.32909v-0.20942q-0.043995 0.029917-0.11967 0.084471-0.073912 0.052795-0.14431 0.084471-0.082712 0.040476-0.19006 0.066873-0.10735 0.028157-0.25165 0.028157-0.26573 0-0.45051-0.17598-0.18478-0.17598-0.18478-0.44875 0-0.2235 0.09503-0.36076 0.09679-0.13903 0.27453-0.21822 0.1795-0.079192 0.43116-0.10735 0.25165-0.028157 0.54026-0.042236v-0.051035q0-0.11263-0.040476-0.18654-0.038716-0.073912-0.11263-0.11615-0.070393-0.040476-0.16894-0.054554-0.09855-0.014079-0.2059-0.014079-0.13023 0-0.29037 0.035196-0.16014 0.033436-0.33085 0.09855h-0.017598v-0.33612q0.09679-0.026397 0.27981-0.058074t0.36076-0.031677q0.20766 0 0.36076 0.035196 0.15486 0.033437 0.26749 0.11615 0.11087 0.080952 0.16894 0.20942 0.058074 0.12847 0.058074 0.31853zm-0.32909-0.48395v-0.5473q-0.15134 0.0088-0.35724 0.026397-0.20414 0.017598-0.32381 0.051035-0.14255 0.040476-0.23054 0.12671-0.087991 0.084471-0.087991 0.23406 0 0.16894 0.10207 0.25517 0.10207 0.084471 0.31149 0.084471 0.17422 0 0.31853-0.066873 0.14431-0.068633 0.26749-0.16366z"/>
   <path d="m9.5574 8q0 0.23934-0.068633 0.4382-0.068633 0.1971-0.19358 0.33437-0.11615 0.13023-0.27453 0.20238-0.15662 0.070393-0.33261 0.070393-0.1531 0-0.27805-0.033437-0.12319-0.033436-0.25165-0.10383v0.8236h-0.33085v-2.6908h0.33085v0.2059q0.13199-0.11087 0.29565-0.18478 0.16542-0.075672 0.35196-0.075672 0.35548 0 0.55258 0.26925 0.19886 0.26749 0.19886 0.7444zm-0.3414 0.0088q0-0.35548-0.12143-0.53147-0.12143-0.17598-0.37308-0.17598-0.14255 0-0.28685 0.061594-0.14431 0.061592-0.27629 0.1619v1.114q0.14079 0.063353 0.2411 0.086231 0.10207 0.022878 0.23054 0.022878 0.27629 0 0.43116-0.18654 0.15486-0.18654 0.15486-0.55258z"/>
   <path d="m11.717 9.0066h-0.33085v-1.1192q0-0.13551-0.01584-0.25341-0.01584-0.11967-0.05807-0.18654-0.044-0.073912-0.12671-0.10911-0.08271-0.036956-0.2147-0.036956-0.13551 0-0.28333 0.066873t-0.28333 0.1707v1.4677h-0.33085v-2.7383h0.33085v0.99078q0.15486-0.12847 0.32029-0.20062 0.16542-0.072153 0.33964-0.072153 0.31853 0 0.48571 0.19182 0.16718 0.19182 0.16718 0.55258z"/>
   <path d="m12.709 6.7118h-0.37308v-0.34316h0.37308zm-0.02112 2.2948h-0.33084v-1.9657h0.33085z"/>
   <path d="m14.8 8.8834q-0.16542 0.079192-0.31501 0.12319-0.14782 0.043996-0.31501 0.043996-0.21294 0-0.39068-0.061594-0.17774-0.063354-0.30445-0.19006-0.12847-0.12671-0.19886-0.32029-0.07039-0.19358-0.07039-0.45227 0-0.48219 0.26397-0.75672 0.26573-0.27453 0.70041-0.27453 0.16894 0 0.33085 0.047515 0.16366 0.047515 0.29917 0.11615v0.3678h-0.0176q-0.15134-0.11791-0.31325-0.18126-0.16014-0.063353-0.31325-0.063353-0.28157 0-0.44523 0.19006-0.1619 0.1883-0.1619 0.55434 0 0.35548 0.15838 0.5473 0.16014 0.19006 0.44875 0.19006 0.10031 0 0.20414-0.026397t0.18654-0.068633q0.07215-0.036956 0.13551-0.077432 0.06335-0.042236 0.10031-0.072153h0.0176z"/>
  </g>
 </g>
</svg>
