<?xml version="1.0" encoding="UTF-8"?>
<svg id="SVGRoot" width="16px" height="16px" version="1.1" viewBox="0 0 16 16" xmlns="http://www.w3.org/2000/svg" xmlns:cc="http://creativecommons.org/ns#" xmlns:dc="http://purl.org/dc/elements/1.1/" xmlns:rdf="http://www.w3.org/1999/02/22-rdf-syntax-ns#">
 <metadata>
  <rdf:RDF>
   <cc:Work rdf:about="">
    <dc:format>image/svg+xml</dc:format>
    <dc:type rdf:resource="http://purl.org/dc/dcmitype/StillImage"/>
    <dc:title/>
   </cc:Work>
  </rdf:RDF>
 </metadata>
 <circle cx="8" cy="8" r="8" fill="#803300" stop-color="#000000" stroke-width="5.2438" style="paint-order:stroke fill markers"/>
 <g fill="#fff" stroke-width=".11891" aria-label="Group">
  <path d="m3.8456 9.1033q-0.28334 0.13006-0.62009 0.2276-0.33443 0.09522-0.64796 0.09522-0.40411 0-0.74086-0.11148-0.33675-0.11148-0.57364-0.33443-0.23921-0.22528-0.36927-0.56203-0.13006-0.33908-0.13006-0.79195 0-0.82911 0.48307-1.3075 0.48539-0.48075 1.3308-0.48075 0.29495 0 0.60151 0.071996 0.30889 0.069673 0.66422 0.23921v0.54577h-0.041804q-0.071996-0.055739-0.20902-0.14631t-0.2694-0.15096q-0.16025-0.071996-0.36462-0.11844-0.20205-0.048771-0.45984-0.048771-0.58061 0-0.91969 0.37391-0.33675 0.37159-0.33675 1.0079 0 0.67119 0.35301 1.0451 0.35301 0.37159 0.96149 0.37159 0.22295 0 0.44359-0.044127 0.22295-0.044126 0.39017-0.1138v-0.84769h-0.92666v-0.40411h1.3819z"/>
  <path d="m6.233 7.2407h-0.023224q-0.097543-0.023224-0.19044-0.032514-0.090575-0.011612-0.21599-0.011612-0.20205 0-0.39017 0.090575-0.18812 0.088253-0.3623 0.22992v1.8417h-0.43662v-2.5942h0.43662v0.3832q0.26011-0.20902 0.45752-0.29495 0.19973-0.088253 0.40643-0.088253 0.1138 0 0.16489 0.00697 0.051094 0.00464 0.15328 0.020902z"/>
  <path d="m8.8597 8.0629q0 0.63403-0.32514 1.001t-0.87092 0.36695q-0.55042 0-0.87556-0.36695-0.32282-0.36695-0.32282-1.001 0-0.63403 0.32282-1.001 0.32514-0.36927 0.87556-0.36927 0.54577 0 0.87092 0.36927 0.32514 0.36695 0.32514 1.001zm-0.45055 0q0-0.50397-0.19741-0.74783-0.19741-0.24618-0.5481-0.24618-0.35533 0-0.55274 0.24618-0.19509 0.24386-0.19509 0.74783 0 0.48771 0.19741 0.74086 0.19741 0.25082 0.55042 0.25082 0.34837 0 0.54577-0.2485 0.19973-0.25082 0.19973-0.74318z"/>
  <path d="m11.688 9.3588h-0.43662v-0.28798q-0.22063 0.17418-0.42268 0.26708-0.20205 0.092898-0.44591 0.092898-0.40875 0-0.63635-0.2485-0.2276-0.25082-0.2276-0.73389v-1.6838h0.43662v1.4771q0 0.19741 0.01858 0.33908 0.01858 0.13935 0.078963 0.23921 0.06271 0.10219 0.16257 0.14864 0.09987 0.046449 0.29031 0.046449 0.16954 0 0.36927-0.088253 0.20205-0.088253 0.37624-0.22528v-1.9369h0.43662z"/>
  <path d="m14.831 8.0303q0 0.31585-0.09058 0.57829-0.09057 0.26011-0.25547 0.44126-0.15328 0.17186-0.3623 0.26708-0.2067 0.092898-0.43894 0.092898-0.20205 0-0.36695-0.044126-0.16257-0.044127-0.33211-0.13702v1.0869h-0.43662v-3.551h0.43662v0.27173q0.17418-0.14631 0.39017-0.24386 0.21831-0.099865 0.46449-0.099865 0.46913 0 0.72925 0.35533 0.26244 0.35301 0.26244 0.98239zm-0.45055 0.011612q0-0.46913-0.16025-0.70138t-0.49236-0.23224q-0.18812 0-0.37856 0.081286-0.19044 0.081286-0.36462 0.21367v1.4701q0.1858 0.083608 0.31818 0.1138 0.1347 0.030192 0.30424 0.030192 0.36462 0 0.569-0.24618 0.20438-0.24618 0.20438-0.72925z"/>
 </g>
</svg>
