<?xml version="1.0" encoding="UTF-8"?>
<svg id="SVGRoot" width="16px" height="16px" version="1.1" viewBox="0 0 16 16" xmlns="http://www.w3.org/2000/svg" xmlns:cc="http://creativecommons.org/ns#" xmlns:dc="http://purl.org/dc/elements/1.1/" xmlns:rdf="http://www.w3.org/1999/02/22-rdf-syntax-ns#">
 <metadata>
  <rdf:RDF>
   <cc:Work rdf:about="">
    <dc:format>image/svg+xml</dc:format>
    <dc:type rdf:resource="http://purl.org/dc/dcmitype/StillImage"/>
    <dc:title/>
   </cc:Work>
  </rdf:RDF>
 </metadata>
 <g>
  <circle cx="8" cy="8" r="8" fill="#ffac24" stop-color="#000000" stroke-dasharray="1.14465, 1.14465" stroke-width="1.1446" style="paint-order:stroke fill markers"/>
  <g fill="#fff" stroke-width=".12169" aria-label="Sprite">
   <path d="m3.7052 8.3018q0 0.20678-0.097447 0.4088-0.09507 0.20202-0.26857 0.34225-0.19014 0.15211-0.44445 0.23768-0.25194 0.085563-0.60845 0.085563-0.38266 0-0.68926-0.071303-0.30422-0.071302-0.62033-0.21153v-0.58943h0.033275q0.26857 0.22341 0.62033 0.34463 0.35176 0.12121 0.66074 0.12121 0.43732 0 0.67975-0.164 0.24481-0.164 0.24481-0.43732 0-0.2353-0.11646-0.34701-0.11408-0.11171-0.34938-0.1735-0.17826-0.047535-0.38741-0.078433-0.20678-0.030898-0.4397-0.078433-0.4706-0.099824-0.69877-0.33988-0.22579-0.24243-0.22579-0.62984 0-0.44445 0.37553-0.72729 0.37553-0.28521 0.95308-0.28521 0.37315 0 0.6845 0.071303t0.55141 0.17588v0.55616h-0.033275q-0.20202-0.17113-0.53239-0.28283-0.32799-0.11408-0.67262-0.11408-0.3779 0-0.60845 0.15687-0.22817 0.15687-0.22817 0.40405 0 0.22104 0.11408 0.34701 0.11408 0.12597 0.40167 0.19252 0.15211 0.033275 0.43257 0.08081 0.28046 0.047535 0.47535 0.097447 0.39454 0.10458 0.59419 0.31611 0.19965 0.21153 0.19965 0.59181z"/>
   <path d="m6.7617 7.9525q0 0.32324-0.092693 0.59181-0.092693 0.2662-0.26144 0.45158-0.15687 0.17588-0.37077 0.27333-0.21153 0.09507-0.44921 0.09507-0.20678 0-0.37553-0.045158-0.16637-0.045158-0.33988-0.14023v1.1123h-0.44683v-3.6341h0.44683v0.27808q0.17826-0.14974 0.39929-0.24956 0.22341-0.1022 0.47535-0.1022 0.4801 0 0.7463 0.36364 0.26857 0.36127 0.26857 1.0054zm-0.46109 0.011884q0-0.4801-0.164-0.71778-0.164-0.23768-0.50387-0.23768-0.19252 0-0.38741 0.083186-0.19489 0.083186-0.37315 0.21866v1.5045q0.19014 0.085563 0.32562 0.11646 0.13785 0.030898 0.31135 0.030898 0.37315 0 0.5823-0.25194 0.20915-0.25194 0.20915-0.7463z"/>
   <path d="m9.1147 7.1444h-0.023768q-0.099824-0.023768-0.19489-0.033274-0.092693-0.011884-0.22104-0.011884-0.20678 0-0.39929 0.092693-0.19252 0.090317-0.37077 0.2353v1.8848h-0.44683v-2.6548h0.44683v0.39216q0.2662-0.21391 0.46822-0.30185 0.2044-0.090317 0.41593-0.090317 0.11646 0 0.16875 0.00713 0.052288 0.00475 0.15687 0.021391z"/>
   <path d="m10.02 6.2127h-0.50387v-0.46347h0.50387zm-0.028521 3.0993h-0.44683v-2.6548h0.44683z"/>
   <path d="m12.259 9.2882q-0.12597 0.033275-0.2757 0.054665-0.14736 0.021391-0.26382 0.021391-0.40642 0-0.61796-0.21866-0.21153-0.21866-0.21153-0.70114v-1.4118h-0.30185v-0.37553h0.30185v-0.76294h0.44683v0.76294h0.92218v0.37553h-0.92218v1.2098q0 0.20915 0.0095 0.32799 0.0095 0.11646 0.06655 0.21866 0.05229 0.09507 0.1426 0.14023 0.09269 0.042782 0.28046 0.042782 0.10933 0 0.22817-0.030898 0.11884-0.033275 0.17113-0.054665h0.02377z"/>
   <path d="m15.023 8.0309h-1.9561q0 0.24481 0.07368 0.42782 0.07368 0.18063 0.20202 0.29709 0.12359 0.11408 0.29234 0.17113 0.17113 0.057042 0.37553 0.057042 0.27095 0 0.54428-0.10695 0.2757-0.10933 0.39216-0.21391h0.02377v0.48723q-0.22579 0.09507-0.46109 0.15924-0.2353 0.064172-0.49436 0.064172-0.66074 0-1.0315-0.35651-0.37077-0.35889-0.37077-1.0173 0-0.65123 0.35414-1.0339 0.35651-0.38266 0.93644-0.38266 0.53715 0 0.82711 0.31373 0.29234 0.31373 0.29234 0.89128zm-0.43495-0.34225q-0.0024-0.35176-0.17826-0.54428-0.1735-0.19252-0.53002-0.19252-0.35889 0-0.5728 0.21153-0.21153 0.21153-0.24005 0.52526z"/>
  </g>
 </g>
</svg>
