<?xml version="1.0" encoding="UTF-8"?>
<svg id="SVGRoot" width="16px" height="16px" version="1.1" viewBox="0 0 16 16" xmlns="http://www.w3.org/2000/svg" xmlns:cc="http://creativecommons.org/ns#" xmlns:dc="http://purl.org/dc/elements/1.1/" xmlns:rdf="http://www.w3.org/1999/02/22-rdf-syntax-ns#">
 <metadata>
  <rdf:RDF>
   <cc:Work rdf:about="">
    <dc:format>image/svg+xml</dc:format>
    <dc:type rdf:resource="http://purl.org/dc/dcmitype/StillImage"/>
    <dc:title/>
   </cc:Work>
  </rdf:RDF>
 </metadata>
 <circle cx="8" cy="8" r="8" fill="#008080" stop-color="#000000" stroke-width="5.2438" style="paint-order:stroke fill markers"/>
 <g fill="#fff" stroke-width=".11891" aria-label="Text">
  <path d="m5.7507 6.6495h-1.2355v3.0494h-0.45984v-3.0494h-1.2355v-0.40875h2.9309z"/>
  <path d="m8.3565 8.4471h-1.9114q0 0.23921 0.071996 0.41804 0.071996 0.17651 0.19741 0.29031 0.12077 0.11148 0.28566 0.16722 0.16722 0.055739 0.36695 0.055739 0.26476 0 0.53184-0.10451 0.2694-0.10683 0.3832-0.20902h0.023225v0.4761q-0.22063 0.092898-0.45055 0.1556-0.22992 0.062706-0.48307 0.062706-0.64564 0-1.0079-0.34837-0.3623-0.35069-0.3623-0.99401 0-0.63635 0.34604-1.0103 0.34837-0.37391 0.91504-0.37391 0.52487 0 0.80821 0.30656 0.28566 0.30656 0.28566 0.87092zm-0.42501-0.33443q-0.0023224-0.34372-0.17418-0.53184-0.16954-0.18812-0.51791-0.18812-0.35069 0-0.55971 0.2067-0.2067 0.2067-0.23457 0.51326z"/>
  <path d="m11.264 9.6989h-0.55042l-0.73622-0.99633-0.74086 0.99633h-0.50862l1.0126-1.2936-1.0033-1.3006h0.55042l0.73157 0.98007 0.73389-0.98007h0.51094l-1.0196 1.2773z"/>
  <path d="m13.18 9.6756q-0.12309 0.032514-0.2694 0.053416-0.14399 0.020902-0.25779 0.020902-0.39714 0-0.60384-0.21366-0.2067-0.21366-0.2067-0.68512v-1.3795h-0.29495v-0.36695h0.29495v-0.74551h0.43662v0.74551h0.90111v0.36695h-0.90111v1.1821q0 0.20438 0.0093 0.3205 0.0093 0.1138 0.06503 0.21366 0.05109 0.092898 0.13935 0.13702 0.09057 0.041804 0.27405 0.041804 0.10683 0 0.22296-0.030192 0.11612-0.032514 0.16722-0.053416h0.02322z"/>
 </g>
</svg>
